<?xml version="1.0" encoding="iso-8859-1"?>
<!-- Generator: Adobe Illustrator 19.0.0, SVG Export Plug-In . SVG Version: 6.00 Build 0)  -->
<svg version="1.1" id="Capa_1" xmlns="http://www.w3.org/2000/svg" xmlns:xlink="http://www.w3.org/1999/xlink" x="0px" y="0px"
	 viewBox="0 0 512 512" style="enable-background:new 0 0 512 512;" xml:space="preserve">
<path style="fill:#0F60CF;" d="M512,256v210c0,5.4-2.999,10.499-7.5,12.9c-4.799,2.699-10.499,2.699-15,0l-92-53.401v-129l92-53.399
	c4.501-2.701,10.201-2.701,15,0C509.001,245.499,512,250.6,512,256z"/>
<path style="fill:#0A4EAF;" d="M512,361v105c0,5.4-2.999,10.499-7.5,12.9c-4.799,2.699-10.499,2.699-15,0l-92-53.401V361H512z"/>
<path style="fill:#0F60CF;" d="M330,16c-66.301,0-120,53.699-120,120c0,66.299,53.699,120,120,120s120-53.701,120-120
	C450,69.699,396.301,16,330,16z"/>
<path style="fill:#0A4EAF;" d="M450,136c0,66.299-53.699,120-120,120V16C396.301,16,450,69.699,450,136z"/>
<path style="fill:#CAE8F9;" d="M330,46c-49.501,0-90,40.499-90,90c0,49.499,40.499,90,90,90s90-40.501,90-90
	C420,86.499,379.501,46,330,46z"/>
<path style="fill:#B7E0F6;" d="M420,136c0,49.499-40.499,90-90,90V46C379.501,46,420,86.499,420,136z"/>
<path style="fill:#0F60CF;" d="M330,106c-16.5,0-30,13.5-30,30s13.5,30,30,30s30-13.5,30-30S346.5,106,330,106z"/>
<path style="fill:#0A4EAF;" d="M360,136c0,16.5-13.5,30-30,30v-60C346.5,106,360,119.5,360,136z"/>
<path style="fill:#0F60CF;" d="M105,46C47.1,46,0,93.1,0,151s47.1,105,105,105s105-47.1,105-105S162.9,46,105,46z"/>
<path style="fill:#0A4EAF;" d="M210,151c0,57.9-47.1,105-105,105V46C162.9,46,210,93.1,210,151z"/>
<path style="fill:#CAE8F9;" d="M105,76c-41.4,0-75,33.6-75,75s33.6,75,75,75s75-33.6,75-75S146.4,76,105,76z"/>
<path style="fill:#B7E0F6;" d="M180,151c0,41.4-33.6,75-75,75V76C146.4,76,180,109.6,180,151z"/>
<path style="fill:#0F60CF;" d="M120,151c0,8.399-6.599,15-15,15s-15-6.601-15-15c0-8.401,6.599-15,15-15S120,142.599,120,151z"/>
<path style="fill:#0A4EAF;" d="M120,151c0,8.399-6.599,15-15,15v-30C113.401,136,120,142.599,120,151z"/>
<path style="fill:#1689FC;" d="M375,226H45c-24.901,0-45,20.099-45,45v180c0,24.899,20.099,45,45,45h330c24.901,0,45-20.101,45-45
	V271C420,246.099,399.901,226,375,226z"/>
<path style="fill:#136EF1;" d="M420,361v90c0,24.899-20.099,45-45,45H45c-24.901,0-45-20.101-45-45v-90H420z"/>
<path style="fill:#CAE8F9;" d="M225,286H75c-8.401,0-15,6.599-15,15v60c0,8.399,6.599,15,15,15h150c8.401,0,15-6.601,15-15v-60
	C240,292.599,233.401,286,225,286z"/>
<g>
	<path style="fill:#1DE8F1;" d="M345,436c-8.291,0-15-6.709-15-15v-30c0-8.291,6.709-15,15-15s15,6.709,15,15v30
		C360,429.291,353.291,436,345,436z"/>
	<path style="fill:#1DE8F1;" d="M285,436c-8.291,0-15-6.709-15-15v-30c0-8.291,6.709-15,15-15s15,6.709,15,15v30
		C300,429.291,293.291,436,285,436z"/>
</g>
<path style="fill:#B7E0F6;" d="M240,361c0,8.399-6.599,15-15,15H75c-8.401,0-15-6.601-15-15H240z"/>
<g>
</g>
<g>
</g>
<g>
</g>
<g>
</g>
<g>
</g>
<g>
</g>
<g>
</g>
<g>
</g>
<g>
</g>
<g>
</g>
<g>
</g>
<g>
</g>
<g>
</g>
<g>
</g>
<g>
</g>
</svg>
